<svg width="176" height="104" viewBox="0 0 176 104" fill="none" xmlns="http://www.w3.org/2000/svg">
<circle cx="124" cy="100" r="4" transform="rotate(180 124 100)" fill="#FD9B9B"/>
<circle cx="124" cy="76" r="4" transform="rotate(180 124 76)" fill="#FD9B9B"/>
<circle cx="172" cy="76" r="4" transform="rotate(180 172 76)" fill="#FD9B9B"/>
<circle cx="124" cy="52" r="4" transform="rotate(180 124 52)" fill="#FD9B9B"/>
<circle cx="172" cy="52" r="4" transform="rotate(180 172 52)" fill="#FD9B9B"/>
<circle cx="124" cy="28" r="4" transform="rotate(180 124 28)" fill="#FD9B9B"/>
<circle cx="148" cy="28" r="4" transform="rotate(180 148 28)" fill="#FD9B9B"/>
<circle cx="124" cy="4" r="4" transform="rotate(180 124 4)" fill="#FD9B9B"/>
<circle cx="100" cy="100" r="4" transform="rotate(180 100 100)" fill="#FD9B9B"/>
<circle cx="100" cy="76" r="4" transform="rotate(180 100 76)" fill="#FD9B9B"/>
<circle cx="148" cy="76" r="4" transform="rotate(180 148 76)" fill="#FD9B9B"/>
<circle cx="100" cy="52" r="4" transform="rotate(180 100 52)" fill="#FD9B9B"/>
<circle cx="148" cy="52" r="4" transform="rotate(180 148 52)" fill="#FD9B9B"/>
<circle cx="100" cy="28" r="4" transform="rotate(180 100 28)" fill="#FD9B9B"/>
<circle cx="100" cy="4" r="4" transform="rotate(180 100 4)" fill="#FD9B9B"/>
<circle cx="76" cy="100" r="4" transform="rotate(180 76 100)" fill="#FD9B9B"/>
<circle cx="76" cy="76" r="4" transform="rotate(180 76 76)" fill="#FD9B9B"/>
<circle cx="76" cy="52" r="4" transform="rotate(180 76 52)" fill="#FD9B9B"/>
<circle cx="76" cy="28" r="4" transform="rotate(180 76 28)" fill="#FD9B9B"/>
<circle cx="76" cy="4.00002" r="4" transform="rotate(180 76 4.00002)" fill="#FD9B9B"/>
<circle cx="52" cy="100" r="4" transform="rotate(180 52 100)" fill="#FD9B9B"/>
<circle cx="52" cy="76" r="4" transform="rotate(180 52 76)" fill="#FD9B9B"/>
<circle cx="52" cy="52" r="4" transform="rotate(180 52 52)" fill="#FD9B9B"/>
<circle cx="52" cy="28" r="4" transform="rotate(180 52 28)" fill="#FD9B9B"/>
<circle cx="52" cy="4.00002" r="4" transform="rotate(180 52 4.00002)" fill="#FD9B9B"/>
<circle cx="28" cy="100" r="4" transform="rotate(180 28 100)" fill="#FD9B9B"/>
<circle cx="28" cy="76" r="4" transform="rotate(180 28 76)" fill="#FD9B9B"/>
<circle cx="28" cy="52" r="4" transform="rotate(180 28 52)" fill="#FD9B9B"/>
<circle cx="28" cy="28" r="4" transform="rotate(180 28 28)" fill="#FD9B9B"/>
<circle cx="28" cy="4.00002" r="4" transform="rotate(180 28 4.00002)" fill="#FD9B9B"/>
<circle cx="4" cy="100" r="4" transform="rotate(180 4 100)" fill="#FD9B9B"/>
<circle cx="4" cy="76" r="4" transform="rotate(180 4 76)" fill="#FD9B9B"/>
<circle cx="4" cy="52" r="4" transform="rotate(180 4 52)" fill="#FD9B9B"/>
<circle cx="4" cy="28" r="4" transform="rotate(180 4 28)" fill="#FD9B9B"/>
<circle cx="4" cy="4.00002" r="4" transform="rotate(180 4 4.00002)" fill="#FD9B9B"/>
</svg>
