<svg width="22" height="21" viewBox="0 0 22 21" fill="none" xmlns="http://www.w3.org/2000/svg">
<path d="M1 7C1 5.11438 1 4.17157 1.58579 3.58579C2.17157 3 3.11438 3 5 3H17C18.8856 3 19.8284 3 20.4142 3.58579C21 4.17157 21 5.11438 21 7V7C21 7.4714 21 7.70711 20.8536 7.85355C20.7071 8 20.4714 8 20 8H2C1.5286 8 1.29289 8 1.14645 7.85355C1 7.70711 1 7.4714 1 7V7Z" fill="white" stroke="url(#paint0_radial)" stroke-width="1.5"/>
<path fill-rule="evenodd" clip-rule="evenodd" d="M1 16C1 17.8856 1 18.8284 1.58579 19.4142C2.17157 20 3.11438 20 5 20H17C18.8856 20 19.8284 20 20.4142 19.4142C21 18.8284 21 17.8856 21 16V11C21 10.5286 21 10.2929 20.8536 10.1464C20.7071 10 20.4714 10 20 10H2C1.5286 10 1.29289 10 1.14645 10.1464C1 10.2929 1 10.5286 1 11V16ZM6 13C6 12.5286 6 12.2929 6.14645 12.1464C6.29289 12 6.5286 12 7 12H9C9.4714 12 9.70711 12 9.85355 12.1464C10 12.2929 10 12.5286 10 13C10 13.4714 10 13.7071 9.85355 13.8536C9.70711 14 9.4714 14 9 14H7C6.5286 14 6.29289 14 6.14645 13.8536C6 13.7071 6 13.4714 6 13ZM6.14645 16.1464C6 16.2929 6 16.5286 6 17C6 17.4714 6 17.7071 6.14645 17.8536C6.29289 18 6.5286 18 7 18H9C9.4714 18 9.70711 18 9.85355 17.8536C10 17.7071 10 17.4714 10 17C10 16.5286 10 16.2929 9.85355 16.1464C9.70711 16 9.4714 16 9 16H7C6.5286 16 6.29289 16 6.14645 16.1464ZM12 13C12 12.5286 12 12.2929 12.1464 12.1464C12.2929 12 12.5286 12 13 12H15C15.4714 12 15.7071 12 15.8536 12.1464C16 12.2929 16 12.5286 16 13C16 13.4714 16 13.7071 15.8536 13.8536C15.7071 14 15.4714 14 15 14H13C12.5286 14 12.2929 14 12.1464 13.8536C12 13.7071 12 13.4714 12 13ZM12.1464 16.1464C12 16.2929 12 16.5286 12 17C12 17.4714 12 17.7071 12.1464 17.8536C12.2929 18 12.5286 18 13 18H15C15.4714 18 15.7071 18 15.8536 17.8536C16 17.7071 16 17.4714 16 17C16 16.5286 16 16.2929 15.8536 16.1464C15.7071 16 15.4714 16 15 16H13C12.5286 16 12.2929 16 12.1464 16.1464Z" fill="white"/>
<path d="M1.58579 19.4142L2.11612 18.8839L2.11612 18.8839L1.58579 19.4142ZM20.4142 19.4142L19.8839 18.8839L19.8839 18.8839L20.4142 19.4142ZM6.14645 12.1464L6.67678 12.6768L6.67678 12.6768L6.14645 12.1464ZM9.85355 12.1464L10.3839 11.6161L10.3839 11.6161L9.85355 12.1464ZM9.85355 13.8536L10.3839 14.3839L10.3839 14.3839L9.85355 13.8536ZM6.14645 13.8536L6.67678 13.3232L6.67678 13.3232L6.14645 13.8536ZM9.85355 17.8536L10.3839 18.3839L10.3839 18.3839L9.85355 17.8536ZM9.85355 16.1464L10.3839 15.6161L10.3839 15.6161L9.85355 16.1464ZM12.1464 12.1464L11.6161 11.6161L11.6161 11.6161L12.1464 12.1464ZM15.8536 12.1464L16.3839 11.6161L16.3839 11.6161L15.8536 12.1464ZM15.8536 13.8536L16.3839 14.3839L16.3839 14.3839L15.8536 13.8536ZM12.1464 13.8536L11.6161 14.3839L11.6161 14.3839L12.1464 13.8536ZM12.1464 16.1464L11.6161 15.6161L11.6161 15.6161L12.1464 16.1464ZM12.1464 17.8536L11.6161 18.3839L11.6161 18.3839L12.1464 17.8536ZM15.8536 17.8536L16.3839 18.3839L16.3839 18.3839L15.8536 17.8536ZM15.8536 16.1464L16.3839 15.6161L16.3839 15.6161L15.8536 16.1464ZM2.11612 18.8839C1.9858 18.7536 1.87858 18.5561 1.81654 18.0946C1.75159 17.6116 1.75 16.964 1.75 16H0.25C0.25 16.9216 0.248407 17.6883 0.329911 18.2945C0.414316 18.9223 0.599986 19.4891 1.05546 19.9445L2.11612 18.8839ZM5 19.25C4.03599 19.25 3.38843 19.2484 2.90539 19.1835C2.44393 19.1214 2.24643 19.0142 2.11612 18.8839L1.05546 19.9445C1.51093 20.4 2.07773 20.5857 2.70552 20.6701C3.31174 20.7516 4.07839 20.75 5 20.75V19.25ZM17 19.25H5V20.75H17V19.25ZM19.8839 18.8839C19.7536 19.0142 19.5561 19.1214 19.0946 19.1835C18.6116 19.2484 17.964 19.25 17 19.25V20.75C17.9216 20.75 18.6883 20.7516 19.2945 20.6701C19.9223 20.5857 20.4891 20.4 20.9445 19.9445L19.8839 18.8839ZM20.25 16C20.25 16.964 20.2484 17.6116 20.1835 18.0946C20.1214 18.5561 20.0142 18.7536 19.8839 18.8839L20.9445 19.9445C21.4 19.4891 21.5857 18.9223 21.6701 18.2945C21.7516 17.6883 21.75 16.9216 21.75 16H20.25ZM20.25 11V16H21.75V11H20.25ZM20.3232 10.6768C20.2844 10.6379 20.2587 10.5949 20.2446 10.5607C20.233 10.5324 20.2346 10.5228 20.2384 10.5513C20.2423 10.5803 20.2459 10.6276 20.248 10.7073C20.25 10.7865 20.25 10.8794 20.25 11H21.75C21.75 10.7855 21.7516 10.5492 21.725 10.3514C21.6955 10.1321 21.6197 9.85192 21.3839 9.61612L20.3232 10.6768ZM20 10.75C20.1206 10.75 20.2135 10.75 20.2927 10.752C20.3724 10.7541 20.4197 10.7577 20.4487 10.7616C20.4772 10.7654 20.4676 10.767 20.4393 10.7554C20.4051 10.7413 20.3621 10.7156 20.3232 10.6768L21.3839 9.61612C21.1481 9.38032 20.8679 9.30448 20.6486 9.27499C20.4508 9.24841 20.2145 9.25 20 9.25V10.75ZM2 10.75H20V9.25H2V10.75ZM1.67678 10.6768C1.63793 10.7156 1.59492 10.7413 1.56066 10.7554C1.53238 10.767 1.52282 10.7654 1.5513 10.7616C1.58026 10.7577 1.62762 10.7541 1.70727 10.752C1.78654 10.75 1.87936 10.75 2 10.75V9.25C1.7855 9.25 1.54918 9.24841 1.35143 9.27499C1.13211 9.30448 0.851917 9.38032 0.616117 9.61612L1.67678 10.6768ZM1.75 11C1.75 10.8794 1.75005 10.7865 1.75205 10.7073C1.75406 10.6276 1.75772 10.5803 1.76162 10.5513C1.76545 10.5228 1.76701 10.5324 1.75538 10.5607C1.74128 10.5949 1.71562 10.6379 1.67678 10.6768L0.616117 9.61612C0.380316 9.85192 0.304481 10.1321 0.274994 10.3514C0.248407 10.5492 0.25 10.7855 0.25 11H1.75ZM1.75 16V11H0.25V16H1.75ZM5.61612 11.6161C5.38032 11.8519 5.30448 12.1321 5.27499 12.3514C5.24841 12.5492 5.25 12.7855 5.25 13H6.75C6.75 12.8794 6.75005 12.7865 6.75205 12.7073C6.75406 12.6276 6.75772 12.5803 6.76162 12.5513C6.76545 12.5228 6.76701 12.5324 6.75538 12.5607C6.74128 12.5949 6.71562 12.6379 6.67678 12.6768L5.61612 11.6161ZM7 11.25C6.7855 11.25 6.54918 11.2484 6.35143 11.275C6.1321 11.3045 5.85192 11.3803 5.61612 11.6161L6.67678 12.6768C6.63793 12.7156 6.59492 12.7413 6.56066 12.7554C6.53238 12.767 6.52282 12.7654 6.5513 12.7616C6.58026 12.7577 6.62762 12.7541 6.70727 12.752C6.78654 12.75 6.87936 12.75 7 12.75V11.25ZM9 11.25H7V12.75H9V11.25ZM10.3839 11.6161C10.1481 11.3803 9.86789 11.3045 9.64857 11.275C9.45082 11.2484 9.2145 11.25 9 11.25V12.75C9.12064 12.75 9.21346 12.75 9.29273 12.752C9.37238 12.7541 9.41974 12.7577 9.4487 12.7616C9.47718 12.7654 9.46762 12.767 9.43934 12.7554C9.40508 12.7413 9.36207 12.7156 9.32322 12.6768L10.3839 11.6161ZM10.75 13C10.75 12.7855 10.7516 12.5492 10.725 12.3514C10.6955 12.1321 10.6197 11.8519 10.3839 11.6161L9.32322 12.6768C9.28438 12.6379 9.25872 12.5949 9.24462 12.5607C9.23299 12.5324 9.23455 12.5228 9.23838 12.5513C9.24228 12.5803 9.24594 12.6276 9.24795 12.7073C9.24995 12.7865 9.25 12.8794 9.25 13H10.75ZM10.3839 14.3839C10.6197 14.1481 10.6955 13.8679 10.725 13.6486C10.7516 13.4508 10.75 13.2145 10.75 13H9.25C9.25 13.1206 9.24995 13.2135 9.24795 13.2927C9.24594 13.3724 9.24228 13.4197 9.23838 13.4487C9.23455 13.4772 9.23299 13.4676 9.24462 13.4393C9.25872 13.4051 9.28438 13.3621 9.32322 13.3232L10.3839 14.3839ZM9 14.75C9.2145 14.75 9.45082 14.7516 9.64857 14.725C9.86789 14.6955 10.1481 14.6197 10.3839 14.3839L9.32322 13.3232C9.36207 13.2844 9.40508 13.2587 9.43934 13.2446C9.46762 13.233 9.47718 13.2346 9.4487 13.2384C9.41974 13.2423 9.37238 13.2459 9.29273 13.248C9.21346 13.25 9.12064 13.25 9 13.25V14.75ZM7 14.75H9V13.25H7V14.75ZM5.61612 14.3839C5.85192 14.6197 6.1321 14.6955 6.35143 14.725C6.54918 14.7516 6.7855 14.75 7 14.75V13.25C6.87936 13.25 6.78654 13.25 6.70727 13.248C6.62762 13.2459 6.58026 13.2423 6.5513 13.2384C6.52282 13.2346 6.53238 13.233 6.56066 13.2446C6.59492 13.2587 6.63793 13.2844 6.67678 13.3232L5.61612 14.3839ZM5.25 13C5.25 13.2145 5.24841 13.4508 5.27499 13.6486C5.30448 13.8679 5.38032 14.1481 5.61612 14.3839L6.67678 13.3232C6.71562 13.3621 6.74128 13.4051 6.75538 13.4393C6.76701 13.4676 6.76545 13.4772 6.76162 13.4487C6.75772 13.4197 6.75406 13.3724 6.75205 13.2927C6.75005 13.2135 6.75 13.1206 6.75 13H5.25ZM6.75 17C6.75 16.8794 6.75005 16.7865 6.75205 16.7073C6.75406 16.6276 6.75772 16.5803 6.76162 16.5513C6.76545 16.5228 6.76701 16.5324 6.75538 16.5607C6.74128 16.5949 6.71562 16.6379 6.67678 16.6768L5.61612 15.6161C5.38032 15.8519 5.30448 16.1321 5.27499 16.3514C5.24841 16.5492 5.25 16.7855 5.25 17H6.75ZM6.67678 17.3232C6.71562 17.3621 6.74128 17.4051 6.75538 17.4393C6.76701 17.4676 6.76545 17.4772 6.76162 17.4487C6.75772 17.4197 6.75406 17.3724 6.75205 17.2927C6.75005 17.2135 6.75 17.1206 6.75 17H5.25C5.25 17.2145 5.24841 17.4508 5.27499 17.6486C5.30448 17.8679 5.38032 18.1481 5.61612 18.3839L6.67678 17.3232ZM7 17.25C6.87936 17.25 6.78654 17.25 6.70727 17.248C6.62762 17.2459 6.58026 17.2423 6.5513 17.2384C6.52282 17.2346 6.53238 17.233 6.56066 17.2446C6.59492 17.2587 6.63793 17.2844 6.67678 17.3232L5.61612 18.3839C5.85192 18.6197 6.1321 18.6955 6.35143 18.725C6.54918 18.7516 6.7855 18.75 7 18.75V17.25ZM9 17.25H7V18.75H9V17.25ZM9.32322 17.3232C9.36207 17.2844 9.40508 17.2587 9.43934 17.2446C9.46762 17.233 9.47718 17.2346 9.4487 17.2384C9.41974 17.2423 9.37238 17.2459 9.29273 17.248C9.21346 17.25 9.12064 17.25 9 17.25V18.75C9.2145 18.75 9.45082 18.7516 9.64857 18.725C9.86789 18.6955 10.1481 18.6197 10.3839 18.3839L9.32322 17.3232ZM9.25 17C9.25 17.1206 9.24995 17.2135 9.24795 17.2927C9.24594 17.3724 9.24228 17.4197 9.23838 17.4487C9.23455 17.4772 9.23299 17.4676 9.24462 17.4393C9.25872 17.4051 9.28438 17.3621 9.32322 17.3232L10.3839 18.3839C10.6197 18.1481 10.6955 17.8679 10.725 17.6486C10.7516 17.4508 10.75 17.2145 10.75 17H9.25ZM9.32322 16.6768C9.28438 16.6379 9.25872 16.5949 9.24462 16.5607C9.23299 16.5324 9.23455 16.5228 9.23838 16.5513C9.24228 16.5803 9.24594 16.6276 9.24795 16.7073C9.24995 16.7865 9.25 16.8794 9.25 17H10.75C10.75 16.7855 10.7516 16.5492 10.725 16.3514C10.6955 16.1321 10.6197 15.8519 10.3839 15.6161L9.32322 16.6768ZM9 16.75C9.12064 16.75 9.21346 16.75 9.29273 16.752C9.37238 16.7541 9.41974 16.7577 9.4487 16.7616C9.47718 16.7654 9.46762 16.767 9.43934 16.7554C9.40508 16.7413 9.36207 16.7156 9.32322 16.6768L10.3839 15.6161C10.1481 15.3803 9.86789 15.3045 9.64857 15.275C9.45082 15.2484 9.2145 15.25 9 15.25V16.75ZM7 16.75H9V15.25H7V16.75ZM6.67678 16.6768C6.63793 16.7156 6.59492 16.7413 6.56066 16.7554C6.53238 16.767 6.52282 16.7654 6.5513 16.7616C6.58026 16.7577 6.62762 16.7541 6.70727 16.752C6.78654 16.75 6.87936 16.75 7 16.75V15.25C6.7855 15.25 6.54918 15.2484 6.35143 15.275C6.1321 15.3045 5.85192 15.3803 5.61612 15.6161L6.67678 16.6768ZM11.6161 11.6161C11.3803 11.8519 11.3045 12.1321 11.275 12.3514C11.2484 12.5492 11.25 12.7855 11.25 13H12.75C12.75 12.8794 12.75 12.7865 12.752 12.7073C12.7541 12.6276 12.7577 12.5803 12.7616 12.5513C12.7654 12.5228 12.767 12.5324 12.7554 12.5607C12.7413 12.5949 12.7156 12.6379 12.6768 12.6768L11.6161 11.6161ZM13 11.25C12.7855 11.25 12.5492 11.2484 12.3514 11.275C12.1321 11.3045 11.8519 11.3803 11.6161 11.6161L12.6768 12.6768C12.6379 12.7156 12.5949 12.7413 12.5607 12.7554C12.5324 12.767 12.5228 12.7654 12.5513 12.7616C12.5803 12.7577 12.6276 12.7541 12.7073 12.752C12.7865 12.75 12.8794 12.75 13 12.75V11.25ZM15 11.25H13V12.75H15V11.25ZM16.3839 11.6161C16.1481 11.3803 15.8679 11.3045 15.6486 11.275C15.4508 11.2484 15.2145 11.25 15 11.25V12.75C15.1206 12.75 15.2135 12.75 15.2927 12.752C15.3724 12.7541 15.4197 12.7577 15.4487 12.7616C15.4772 12.7654 15.4676 12.767 15.4393 12.7554C15.4051 12.7413 15.3621 12.7156 15.3232 12.6768L16.3839 11.6161ZM16.75 13C16.75 12.7855 16.7516 12.5492 16.725 12.3514C16.6955 12.1321 16.6197 11.8519 16.3839 11.6161L15.3232 12.6768C15.2844 12.6379 15.2587 12.5949 15.2446 12.5607C15.233 12.5324 15.2346 12.5228 15.2384 12.5513C15.2423 12.5803 15.2459 12.6276 15.248 12.7073C15.25 12.7865 15.25 12.8794 15.25 13H16.75ZM16.3839 14.3839C16.6197 14.1481 16.6955 13.8679 16.725 13.6486C16.7516 13.4508 16.75 13.2145 16.75 13H15.25C15.25 13.1206 15.25 13.2135 15.248 13.2927C15.2459 13.3724 15.2423 13.4197 15.2384 13.4487C15.2346 13.4772 15.233 13.4676 15.2446 13.4393C15.2587 13.4051 15.2844 13.3621 15.3232 13.3232L16.3839 14.3839ZM15 14.75C15.2145 14.75 15.4508 14.7516 15.6486 14.725C15.8679 14.6955 16.1481 14.6197 16.3839 14.3839L15.3232 13.3232C15.3621 13.2844 15.4051 13.2587 15.4393 13.2446C15.4676 13.233 15.4772 13.2346 15.4487 13.2384C15.4197 13.2423 15.3724 13.2459 15.2927 13.248C15.2135 13.25 15.1206 13.25 15 13.25V14.75ZM13 14.75H15V13.25H13V14.75ZM11.6161 14.3839C11.8519 14.6197 12.1321 14.6955 12.3514 14.725C12.5492 14.7516 12.7855 14.75 13 14.75V13.25C12.8794 13.25 12.7865 13.25 12.7073 13.248C12.6276 13.2459 12.5803 13.2423 12.5513 13.2384C12.5228 13.2346 12.5324 13.233 12.5607 13.2446C12.5949 13.2587 12.6379 13.2844 12.6768 13.3232L11.6161 14.3839ZM11.25 13C11.25 13.2145 11.2484 13.4508 11.275 13.6486C11.3045 13.8679 11.3803 14.1481 11.6161 14.3839L12.6768 13.3232C12.7156 13.3621 12.7413 13.4051 12.7554 13.4393C12.767 13.4676 12.7654 13.4772 12.7616 13.4487C12.7577 13.4197 12.7541 13.3724 12.752 13.2927C12.75 13.2135 12.75 13.1206 12.75 13H11.25ZM12.75 17C12.75 16.8794 12.75 16.7865 12.752 16.7073C12.7541 16.6276 12.7577 16.5803 12.7616 16.5513C12.7654 16.5228 12.767 16.5324 12.7554 16.5607C12.7413 16.5949 12.7156 16.6379 12.6768 16.6768L11.6161 15.6161C11.3803 15.8519 11.3045 16.1321 11.275 16.3514C11.2484 16.5492 11.25 16.7855 11.25 17H12.75ZM12.6768 17.3232C12.7156 17.3621 12.7413 17.4051 12.7554 17.4393C12.767 17.4676 12.7654 17.4772 12.7616 17.4487C12.7577 17.4197 12.7541 17.3724 12.752 17.2927C12.75 17.2135 12.75 17.1206 12.75 17H11.25C11.25 17.2145 11.2484 17.4508 11.275 17.6486C11.3045 17.8679 11.3803 18.1481 11.6161 18.3839L12.6768 17.3232ZM13 17.25C12.8794 17.25 12.7865 17.25 12.7073 17.248C12.6276 17.2459 12.5803 17.2423 12.5513 17.2384C12.5228 17.2346 12.5324 17.233 12.5607 17.2446C12.5949 17.2587 12.6379 17.2844 12.6768 17.3232L11.6161 18.3839C11.8519 18.6197 12.1321 18.6955 12.3514 18.725C12.5492 18.7516 12.7855 18.75 13 18.75V17.25ZM15 17.25H13V18.75H15V17.25ZM15.3232 17.3232C15.3621 17.2844 15.4051 17.2587 15.4393 17.2446C15.4676 17.233 15.4772 17.2346 15.4487 17.2384C15.4197 17.2423 15.3724 17.2459 15.2927 17.248C15.2135 17.25 15.1206 17.25 15 17.25V18.75C15.2145 18.75 15.4508 18.7516 15.6486 18.725C15.8679 18.6955 16.1481 18.6197 16.3839 18.3839L15.3232 17.3232ZM15.25 17C15.25 17.1206 15.25 17.2135 15.248 17.2927C15.2459 17.3724 15.2423 17.4197 15.2384 17.4487C15.2346 17.4772 15.233 17.4676 15.2446 17.4393C15.2587 17.4051 15.2844 17.3621 15.3232 17.3232L16.3839 18.3839C16.6197 18.1481 16.6955 17.8679 16.725 17.6486C16.7516 17.4508 16.75 17.2145 16.75 17H15.25ZM15.3232 16.6768C15.2844 16.6379 15.2587 16.5949 15.2446 16.5607C15.233 16.5324 15.2346 16.5228 15.2384 16.5513C15.2423 16.5803 15.2459 16.6276 15.248 16.7073C15.25 16.7865 15.25 16.8794 15.25 17H16.75C16.75 16.7855 16.7516 16.5492 16.725 16.3514C16.6955 16.1321 16.6197 15.8519 16.3839 15.6161L15.3232 16.6768ZM15 16.75C15.1206 16.75 15.2135 16.75 15.2927 16.752C15.3724 16.7541 15.4197 16.7577 15.4487 16.7616C15.4772 16.7654 15.4676 16.767 15.4393 16.7554C15.4051 16.7413 15.3621 16.7156 15.3232 16.6768L16.3839 15.6161C16.1481 15.3803 15.8679 15.3045 15.6486 15.275C15.4508 15.2484 15.2145 15.25 15 15.25V16.75ZM13 16.75H15V15.25H13V16.75ZM12.6768 16.6768C12.6379 16.7156 12.5949 16.7413 12.5607 16.7554C12.5324 16.767 12.5228 16.7654 12.5513 16.7616C12.5803 16.7577 12.6276 16.7541 12.7073 16.752C12.7865 16.75 12.8794 16.75 13 16.75V15.25C12.7855 15.25 12.5492 15.2484 12.3514 15.275C12.1321 15.3045 11.8519 15.3803 11.6161 15.6161L12.6768 16.6768Z" fill="url(#paint1_radial)"/>
<path d="M6 1L6 4" stroke="url(#paint2_radial)" stroke-width="2" stroke-linecap="round"/>
<path d="M16 1L16 4" stroke="url(#paint3_radial)" stroke-width="2" stroke-linecap="round"/>
<defs>
<radialGradient id="paint0_radial" cx="0" cy="0" r="1" gradientUnits="userSpaceOnUse" gradientTransform="translate(7.86941 4.0542) rotate(51.5716) scale(5.03685 12.74)">
<stop stop-color="#10A2BD"/>
<stop offset="1" stop-color="#35AE85"/>
</radialGradient>
<radialGradient id="paint1_radial" cx="0" cy="0" r="1" gradientUnits="userSpaceOnUse" gradientTransform="translate(7.86941 12.1084) rotate(68.3618) scale(8.48987 15.1167)">
<stop stop-color="#10A2BD"/>
<stop offset="1" stop-color="#35AE85"/>
</radialGradient>
<radialGradient id="paint2_radial" cx="0" cy="0" r="1" gradientUnits="userSpaceOnUse" gradientTransform="translate(5.78916 2.03041) rotate(149.245) scale(0.918306 2.09634)">
<stop stop-color="#10A2BD"/>
<stop offset="1" stop-color="#35AE85"/>
</radialGradient>
<radialGradient id="paint3_radial" cx="0" cy="0" r="1" gradientUnits="userSpaceOnUse" gradientTransform="translate(15.7892 2.03041) rotate(149.245) scale(0.918306 2.09634)">
<stop stop-color="#10A2BD"/>
<stop offset="1" stop-color="#35AE85"/>
</radialGradient>
</defs>
</svg>
