<svg width="21" height="19" viewBox="0 0 21 19" fill="none" xmlns="http://www.w3.org/2000/svg">
<path d="M10.5 4.30035L9.68504 3.15435C9.34195 2.67187 8.9598 2.26842 8.54771 1.94435L8.54766 1.94431C7.74185 1.31053 6.84818 1 5.86636 1C4.52626 1 3.3038 1.54156 2.40671 2.53098L10.5 4.30035ZM10.5 4.30035L11.3149 3.1544M10.5 4.30035L11.3149 3.1544M11.3149 3.1544C11.6582 2.67175 12.0402 2.26845 12.4521 1.94436L11.3149 3.1544ZM7.95153 15.8422L7.95158 15.8422L7.95486 15.8451C8.67601 16.4701 9.49826 17.1828 10.3526 17.9425L10.3533 17.9431C10.396 17.9811 10.448 18 10.5 18C10.5521 18 10.6042 17.9809 10.6464 17.9433L10.647 17.9429C11.4952 17.1885 12.3122 16.4803 13.0299 15.8582L13.0489 15.8417L13.049 15.8417C15.1866 13.9892 16.9377 12.4674 18.1421 10.9894L18.1422 10.9893C19.4543 9.37929 20 7.94211 20 6.41795C20 4.88554 19.484 3.51366 18.5932 2.53103C17.6961 1.54155 16.4737 1 15.1336 1C14.1519 1 13.2582 1.31049 12.4523 1.94425L7.95153 15.8422ZM7.95153 15.8422C5.81359 13.9894 4.06252 12.4675 2.85802 10.9895C1.5458 9.37924 1 7.94204 1 6.41811C1 4.88557 1.51601 3.51371 2.40663 2.53107L7.95153 15.8422Z" stroke="url(#paint0_radial)" stroke-width="2"/>
<defs>
<radialGradient id="paint0_radial" cx="0" cy="0" r="1" gradientUnits="userSpaceOnUse" gradientTransform="translate(7.21288 4.00597) rotate(77.6348) scale(15.3501 16.6797)">
<stop stop-color="#10A2BD"/>
<stop offset="1" stop-color="#35AE85"/>
</radialGradient>
</defs>
</svg>
