<svg width="22" height="24" viewBox="0 0 22 24" fill="none" xmlns="http://www.w3.org/2000/svg">
<path d="M20.6489 6.62077L19.6567 6.49674L20.6489 6.62077C20.7595 5.73635 20.2715 4.88551 19.4522 4.53441L19.0583 5.45356L19.4522 4.53441L11.7878 1.24968C11.2847 1.03406 10.7153 1.03406 10.2122 1.24968L2.54778 4.53441C1.72855 4.88551 1.24051 5.73635 1.35106 6.62077L2.21405 13.5247C2.4342 15.2859 3.31517 16.8977 4.6787 18.034L9.71963 22.2347C10.4613 22.8528 11.5387 22.8528 12.2804 22.2347L17.3213 18.034C18.6848 16.8977 19.5658 15.2859 19.7859 13.5247L20.6489 6.62077Z" stroke="url(#paint0_radial)" stroke-width="2" stroke-linecap="round"/>
<path d="M7.25 12L10.5687 15.3187C10.7918 15.5418 11.1633 15.5051 11.3383 15.2425L13.5 12L16 8.25" stroke="url(#paint1_radial)" stroke-width="2" stroke-linecap="round"/>
<defs>
<radialGradient id="paint0_radial" cx="0" cy="0" r="1" gradientUnits="userSpaceOnUse" gradientTransform="translate(8.26074 6.21681) rotate(80.1541) scale(16.0191 14.0203)">
<stop stop-color="#10A2BD"/>
<stop offset="1" stop-color="#35AE85"/>
</radialGradient>
<radialGradient id="paint1_radial" cx="0" cy="0" r="1" gradientUnits="userSpaceOnUse" gradientTransform="translate(14.1551 10.826) rotate(170.351) scale(7.00423 6.01224)">
<stop stop-color="#10A2BD"/>
<stop offset="1" stop-color="#35AE85"/>
</radialGradient>
</defs>
</svg>
