<svg width="22" height="26" viewBox="0 0 22 26" fill="none" xmlns="http://www.w3.org/2000/svg">
<path d="M1 13.25C1 11.3644 1 10.4216 1.58579 9.83579C2.17157 9.25 3.11438 9.25 5 9.25H17C18.8856 9.25 19.8284 9.25 20.4142 9.83579C21 10.4216 21 11.3644 21 13.25V18.25C21 21.0784 21 22.4926 20.1213 23.3713C19.2426 24.25 17.8284 24.25 15 24.25H7C4.17157 24.25 2.75736 24.25 1.87868 23.3713C1 22.4926 1 21.0784 1 18.25V13.25Z" stroke="url(#paint0_radial)" stroke-width="2"/>
<path d="M16 8V6.75C16 3.98858 13.7614 1.75 11 1.75V1.75C8.23858 1.75 6 3.98858 6 6.75V8" stroke="url(#paint1_radial)" stroke-width="2" stroke-linecap="round"/>
<circle cx="11" cy="16.75" r="1.5" fill="#CCD2E3" stroke="url(#paint2_radial)" stroke-width="2"/>
<defs>
<radialGradient id="paint0_radial" cx="0" cy="0" r="1" gradientUnits="userSpaceOnUse" gradientTransform="translate(7.86941 12.4126) rotate(75.1864) scale(12.2444 15.7222)">
<stop stop-color="#10A2BD"/>
<stop offset="1" stop-color="#35AE85"/>
</radialGradient>
<radialGradient id="paint1_radial" cx="0" cy="0" r="1" gradientUnits="userSpaceOnUse" gradientTransform="translate(9.43471 3.06775) rotate(72.3927) scale(5.17467 7.75041)">
<stop stop-color="#10A2BD"/>
<stop offset="1" stop-color="#35AE85"/>
</radialGradient>
<radialGradient id="paint2_radial" cx="0" cy="0" r="1" gradientUnits="userSpaceOnUse" gradientTransform="translate(10.2174 15.3042) rotate(78.781) scale(4.02267 3.98798)">
<stop stop-color="#10A2BD"/>
<stop offset="1" stop-color="#35AE85"/>
</radialGradient>
</defs>
</svg>
