<svg width="21" height="21" viewBox="0 0 21 21" fill="none" xmlns="http://www.w3.org/2000/svg">
<path d="M11.1152 13.492C11.8225 13.3183 12.3457 12.863 12.3457 12.3397C12.3457 11.8165 11.8225 11.3612 11.1152 11.1875V13.492Z" fill="url(#paint0_radial)"/>
<path d="M10.5 3.73242C6.76836 3.73242 3.73242 6.76836 3.73242 10.5C3.73242 14.2316 6.76836 17.2676 10.5 17.2676C14.2316 17.2676 17.2676 14.2316 17.2676 10.5C17.2676 6.76836 14.2316 3.73242 10.5 3.73242ZM13.5762 12.3397C13.5762 13.5283 12.5176 14.5222 11.1152 14.7509V15.4219C11.1152 15.7619 10.8401 16.0371 10.5 16.0371C10.1599 16.0371 9.88477 15.7619 9.88477 15.4219V14.7509C8.4824 14.5222 7.42383 13.5283 7.42383 12.3397C7.42383 11.9997 7.699 11.7245 8.03906 11.7245C8.37912 11.7245 8.6543 11.9997 8.6543 12.3397C8.6543 12.863 9.17745 13.3182 9.88477 13.4919V11.0595C8.4824 10.8308 7.42383 9.83694 7.42383 8.64831C7.42383 7.45968 8.4824 6.46578 9.88477 6.23716V5.57214C9.88477 5.23208 10.1599 4.9569 10.5 4.9569C10.8401 4.9569 11.1152 5.23208 11.1152 5.57214V6.23716C12.5176 6.46578 13.5762 7.45968 13.5762 8.64831C13.5762 8.98837 13.301 9.26354 12.9609 9.26354C12.6209 9.26354 12.3457 8.98837 12.3457 8.64831C12.3457 8.12507 11.8225 7.6698 11.1152 7.4961V9.92857C12.5176 10.1572 13.5762 11.151 13.5762 12.3397Z" fill="url(#paint1_radial)"/>
<path d="M9.88477 7.49608C9.17745 7.66978 8.6543 8.12505 8.6543 8.64829C8.6543 9.17153 9.17745 9.6268 9.88477 9.8005V7.49608Z" fill="url(#paint2_radial)"/>
<path d="M10.5 0C4.73279 0 0 4.73279 0 10.5C0 16.2672 4.73279 21 10.5 21C16.2672 21 21 16.2672 21 10.5C21 4.73279 16.2672 0 10.5 0ZM10.5 18.498C6.09 18.498 2.50195 14.91 2.50195 10.5C2.50195 6.09 6.09 2.50195 10.5 2.50195C14.91 2.50195 18.498 6.09 18.498 10.5C18.498 14.91 14.91 18.498 10.5 18.498Z" fill="url(#paint3_radial)"/>
<defs>
<radialGradient id="paint0_radial" cx="0" cy="0" r="1" gradientUnits="userSpaceOnUse" gradientTransform="translate(11.5379 11.6734) rotate(83.9543) scale(1.82873 0.994972)">
<stop stop-color="#10A2BD"/>
<stop offset="1" stop-color="#35AE85"/>
</radialGradient>
<radialGradient id="paint1_radial" cx="0" cy="0" r="1" gradientUnits="userSpaceOnUse" gradientTransform="translate(8.38135 6.58618) rotate(78.781) scale(10.8895 10.7956)">
<stop stop-color="#10A2BD"/>
<stop offset="1" stop-color="#35AE85"/>
</radialGradient>
<radialGradient id="paint2_radial" cx="0" cy="0" r="1" gradientUnits="userSpaceOnUse" gradientTransform="translate(9.07693 7.98194) rotate(83.9543) scale(1.82873 0.994972)">
<stop stop-color="#10A2BD"/>
<stop offset="1" stop-color="#35AE85"/>
</radialGradient>
<radialGradient id="paint3_radial" cx="0" cy="0" r="1" gradientUnits="userSpaceOnUse" gradientTransform="translate(7.21288 4.42765) rotate(78.781) scale(16.8952 16.7495)">
<stop stop-color="#10A2BD"/>
<stop offset="1" stop-color="#35AE85"/>
</radialGradient>
</defs>
</svg>
