<svg width="144" height="49" viewBox="0 0 144 49" fill="none" xmlns="http://www.w3.org/2000/svg">
<path d="M0 11.167C0 7.9054 0 6.27461 0.532843 4.98821C1.2433 3.27301 2.60602 1.91029 4.32122 1.19984C5.60761 0.666992 7.23841 0.666992 10.5 0.666992H133.5C136.762 0.666992 138.392 0.666992 139.679 1.19984C141.394 1.91029 142.757 3.27301 143.467 4.98821C144 6.27461 144 7.9054 144 11.167V38.167C144 41.4286 144 43.0594 143.467 44.3458C142.757 46.061 141.394 47.4237 139.679 48.1341C138.392 48.667 136.762 48.667 133.5 48.667H10.5C7.23841 48.667 5.60761 48.667 4.32122 48.1341C2.60602 47.4237 1.2433 46.061 0.532843 44.3458C0 43.0594 0 41.4286 0 38.167V11.167Z" fill="#0C0D10"/>
<path d="M97.831 23.708V26.4573H96.1078V28.2602H97.831V34.3862C97.831 36.478 98.7773 37.3147 101.158 37.3147C101.576 37.3147 101.975 37.2649 102.323 37.2051V35.4221C102.025 35.452 101.835 35.4719 101.507 35.4719C100.441 35.4719 99.9726 34.9739 99.9726 33.8383V28.2602H102.323V26.4573H99.9726V23.708H97.831Z" fill="white"/>
<path d="M108.388 37.4641C111.556 37.4641 113.498 35.3424 113.498 31.8262C113.498 28.3299 111.546 26.1983 108.388 26.1983C105.22 26.1983 103.268 28.3299 103.268 31.8262C103.268 35.3424 105.21 37.4641 108.388 37.4641ZM108.388 35.5616C106.525 35.5616 105.479 34.1969 105.479 31.8262C105.479 29.4754 106.525 28.1008 108.388 28.1008C110.241 28.1008 111.297 29.4754 111.297 31.8262C111.297 34.187 110.241 35.5616 108.388 35.5616Z" fill="white"/>
<path d="M115.16 37.2549H117.301V30.85C117.301 29.326 118.447 28.3 120.071 28.3C120.449 28.3 121.087 28.3698 121.266 28.4295V26.3178C121.037 26.258 120.628 26.2282 120.31 26.2282C118.895 26.2282 117.69 27.0051 117.381 28.0709H117.222V26.4075H115.16V37.2549Z" fill="white"/>
<path d="M126.583 28.0211C128.167 28.0211 129.203 29.1268 129.253 30.8301H123.774C123.894 29.1368 125 28.0211 126.583 28.0211ZM129.243 34.3264C128.845 35.1731 127.958 35.6413 126.663 35.6413C124.95 35.6413 123.844 34.436 123.774 32.5334V32.4139H131.434V31.6668C131.434 28.2602 129.612 26.1983 126.593 26.1983C123.535 26.1983 121.593 28.3996 121.593 31.8661C121.593 35.3325 123.496 37.4641 126.603 37.4641C129.084 37.4641 130.817 36.2688 131.305 34.3264H129.243Z" fill="white"/>
<path d="M83.7867 33.2491C83.9519 35.9128 86.1716 37.6163 89.4754 37.6163C93.0062 37.6163 95.2156 35.8302 95.2156 32.9807C95.2156 30.7403 93.9561 29.5014 90.9001 28.7891L89.2585 28.3864C87.3176 27.9322 86.533 27.323 86.533 26.2596C86.533 24.9175 87.7512 24.0399 89.5786 24.0399C91.3131 24.0399 92.5107 24.8968 92.7275 26.27H94.9782C94.844 23.7612 92.6346 21.9957 89.6096 21.9957C86.3574 21.9957 84.1894 23.7612 84.1894 26.4145C84.1894 28.6032 85.4179 29.9041 88.1126 30.5339L90.0329 30.9984C92.0048 31.463 92.872 32.1444 92.872 33.2801C92.872 34.6016 91.5092 35.5618 89.6509 35.5618C87.6583 35.5618 86.2748 34.6635 86.0787 33.2491H83.7867Z" fill="white"/>
<path d="M61.6019 26.2282C60.1277 26.2282 58.8527 26.9653 58.1953 28.2004H58.0359V26.4075H55.974V40.8608H58.1156V35.6114H58.2849C58.8527 36.7569 60.0779 37.4342 61.6218 37.4342C64.3611 37.4342 66.1043 35.2727 66.1043 31.8262C66.1043 28.3797 64.3611 26.2282 61.6019 26.2282ZM60.9943 35.5118C59.2013 35.5118 58.0757 34.0973 58.0757 31.8362C58.0757 29.5651 59.2013 28.1506 61.0043 28.1506C62.8171 28.1506 63.9029 29.5352 63.9029 31.8262C63.9029 34.1272 62.8171 35.5118 60.9943 35.5118Z" fill="white"/>
<path d="M73.5981 26.2282C72.1238 26.2282 70.8488 26.9653 70.1914 28.2004H70.0321V26.4075H67.9701V40.8608H70.1117V35.6114H70.2811C70.8488 36.7569 72.074 37.4342 73.618 37.4342C76.3572 37.4342 78.1004 35.2727 78.1004 31.8262C78.1004 28.3797 76.3572 26.2282 73.5981 26.2282ZM72.9904 35.5118C71.1975 35.5118 70.0719 34.0973 70.0719 31.8362C70.0719 29.5651 71.1975 28.1506 73.0004 28.1506C74.8133 28.1506 75.899 29.5352 75.899 31.8262C75.899 34.1272 74.8133 35.5118 72.9904 35.5118Z" fill="white"/>
<path d="M52.1316 37.2549H54.5887L49.2098 22.3571H46.7217L41.3428 37.2549H43.7173L45.0905 33.3007H50.7688L52.1316 37.2549ZM47.847 25.062H48.0225L50.1803 31.3598H45.6789L47.847 25.062Z" fill="white"/>
<path d="M42.7814 11.1201V18.3069H45.3762C47.5178 18.3069 48.7579 16.9871 48.7579 14.6911C48.7579 12.43 47.5078 11.1201 45.3762 11.1201H42.7814ZM43.897 12.1361H45.2517C46.7408 12.1361 47.6224 13.0824 47.6224 14.706C47.6224 16.3546 46.7558 17.2909 45.2517 17.2909H43.897V12.1361Z" fill="white"/>
<path d="M52.556 18.4115C54.1398 18.4115 55.111 17.3507 55.111 15.5926C55.111 13.8444 54.1348 12.7786 52.556 12.7786C50.9722 12.7786 49.9961 13.8444 49.9961 15.5926C49.9961 17.3507 50.9673 18.4115 52.556 18.4115ZM52.556 17.4602C51.6247 17.4602 51.1017 16.7779 51.1017 15.5926C51.1017 14.4172 51.6247 13.7299 52.556 13.7299C53.4824 13.7299 54.0103 14.4172 54.0103 15.5926C54.0103 16.7729 53.4824 17.4602 52.556 17.4602Z" fill="white"/>
<path d="M63.3816 12.8832H62.3108L61.3446 17.0219H61.2599L60.1443 12.8832H59.1183L58.0027 17.0219H57.923L56.9518 12.8832H55.8661L57.3602 18.3069H58.4609L59.5765 14.3126H59.6612L60.7818 18.3069H61.8924L63.3816 12.8832Z" fill="white"/>
<path d="M64.6147 18.3069H65.6855V15.1343C65.6855 14.2877 66.1886 13.7597 66.9805 13.7597C67.7724 13.7597 68.1509 14.193 68.1509 15.0646V18.3069H69.2217V14.7957C69.2217 13.5057 68.5543 12.7786 67.344 12.7786C66.5272 12.7786 65.9894 13.1422 65.7254 13.7448H65.6457V12.8832H64.6147V18.3069Z" fill="white"/>
<path d="M70.9081 18.3069H71.9789V10.7665H70.9081V18.3069Z" fill="white"/>
<path d="M76.0061 18.4115C77.5899 18.4115 78.5611 17.3507 78.5611 15.5926C78.5611 13.8444 77.5849 12.7786 76.0061 12.7786C74.4223 12.7786 73.4461 13.8444 73.4461 15.5926C73.4461 17.3507 74.4173 18.4115 76.0061 18.4115ZM76.0061 17.4602C75.0747 17.4602 74.5518 16.7779 74.5518 15.5926C74.5518 14.4172 75.0747 13.7299 76.0061 13.7299C76.9324 13.7299 77.4604 14.4172 77.4604 15.5926C77.4604 16.7729 76.9324 17.4602 76.0061 17.4602Z" fill="white"/>
<path d="M81.7515 17.4951C81.1688 17.4951 80.7455 17.2112 80.7455 16.7231C80.7455 16.245 81.0842 15.991 81.8312 15.9412L83.156 15.8565V16.3097C83.156 16.9821 82.5584 17.4951 81.7515 17.4951ZM81.4776 18.3966C82.1898 18.3966 82.7825 18.0878 83.1062 17.5449H83.1909V18.3069H84.2219V14.6014C84.2219 13.4559 83.4549 12.7786 82.0952 12.7786C80.865 12.7786 79.9885 13.3762 79.8789 14.3076H80.9148C81.0344 13.9241 81.4477 13.705 82.0454 13.705C82.7775 13.705 83.156 14.0287 83.156 14.6014V15.0696L81.6868 15.1543C80.3969 15.234 79.6697 15.7968 79.6697 16.7729C79.6697 17.764 80.4317 18.3966 81.4776 18.3966Z" fill="white"/>
<path d="M87.8556 18.3966C88.6027 18.3966 89.2352 18.0429 89.5589 17.4503H89.6436V18.3069H90.6696V10.7665H89.5988V13.7448H89.5191C89.2252 13.1471 88.5977 12.7935 87.8556 12.7935C86.486 12.7935 85.6044 13.8793 85.6044 15.5926C85.6044 17.3108 86.476 18.3966 87.8556 18.3966ZM88.1594 13.7548C89.0559 13.7548 89.6187 14.467 89.6187 15.5975C89.6187 16.7331 89.0609 17.4353 88.1594 17.4353C87.253 17.4353 86.7101 16.743 86.7101 15.5926C86.7101 14.452 87.2579 13.7548 88.1594 13.7548Z" fill="white"/>
<path d="M97.6133 18.4115C99.1971 18.4115 100.168 17.3507 100.168 15.5926C100.168 13.8444 99.1922 12.7786 97.6133 12.7786C96.0296 12.7786 95.0534 13.8444 95.0534 15.5926C95.0534 17.3507 96.0246 18.4115 97.6133 18.4115ZM97.6133 17.4602C96.682 17.4602 96.159 16.7779 96.159 15.5926C96.159 14.4172 96.682 13.7299 97.6133 13.7299C98.5397 13.7299 99.0676 14.4172 99.0676 15.5926C99.0676 16.7729 98.5397 17.4602 97.6133 17.4602Z" fill="white"/>
<path d="M101.586 18.3069H102.657V15.1343C102.657 14.2877 103.16 13.7597 103.951 13.7597C104.743 13.7597 105.122 14.193 105.122 15.0646V18.3069H106.193V14.7957C106.193 13.5057 105.525 12.7786 104.315 12.7786C103.498 12.7786 102.96 13.1422 102.696 13.7448H102.617V12.8832H101.586V18.3069Z" fill="white"/>
<path d="M111.124 11.5335V12.9081H110.263V13.8095H111.124V16.8725C111.124 17.9184 111.597 18.3368 112.788 18.3368C112.997 18.3368 113.196 18.3119 113.371 18.282V17.3905C113.221 17.4054 113.127 17.4154 112.962 17.4154C112.429 17.4154 112.195 17.1664 112.195 16.5986V13.8095H113.371V12.9081H112.195V11.5335H111.124Z" fill="white"/>
<path d="M114.808 18.3069H115.879V15.1393C115.879 14.3176 116.367 13.7647 117.243 13.7647C118 13.7647 118.404 14.203 118.404 15.0696V18.3069H119.475V14.8056C119.475 13.5157 118.762 12.7836 117.607 12.7836C116.79 12.7836 116.217 13.1471 115.953 13.7548H115.869V10.7665H114.808V18.3069Z" fill="white"/>
<path d="M123.337 13.69C124.129 13.69 124.647 14.2428 124.672 15.0945H121.933C121.993 14.2478 122.546 13.69 123.337 13.69ZM124.667 16.8426C124.468 17.266 124.025 17.5001 123.377 17.5001C122.521 17.5001 121.968 16.8974 121.933 15.9462V15.8864H125.763V15.5129C125.763 13.8095 124.852 12.7786 123.342 12.7786C121.813 12.7786 120.842 13.8793 120.842 15.6125C120.842 17.3457 121.794 18.4115 123.347 18.4115C124.588 18.4115 125.454 17.8138 125.698 16.8426H124.667Z" fill="white"/>
<path d="M29.7228 25.028C29.7488 23.0108 30.8321 21.1021 32.5507 20.0456C31.4665 18.4972 29.6506 17.5154 27.7613 17.4563C25.7462 17.2448 23.7927 18.6621 22.7658 18.6621C21.7191 18.6621 20.1381 17.4773 18.4356 17.5124C16.2165 17.5841 14.1478 18.8457 13.0681 20.7858C10.7473 24.8039 12.4784 30.7092 14.7016 33.9571C15.8139 35.5475 17.1138 37.3241 18.8147 37.2611C20.4792 37.192 21.1009 36.1997 23.11 36.1997C25.1005 36.1997 25.6838 37.2611 27.4192 37.221C29.2053 37.192 30.3306 35.6235 31.4038 34.018C32.203 32.8848 32.818 31.6323 33.2259 30.307C31.127 29.4193 29.7253 27.307 29.7228 25.028Z" fill="white"/>
<path d="M26.4448 15.3203C27.4187 14.1513 27.8984 12.6487 27.7823 11.1316C26.2945 11.2879 24.9202 11.9989 23.9332 13.1231C22.968 14.2215 22.4658 15.6977 22.5607 17.1568C24.0491 17.1721 25.5122 16.4803 26.4448 15.3203Z" fill="white"/>
<path d="M4.32122 48.1341L3.93853 49.058L4.32122 48.1341ZM143.467 44.3458L142.543 43.9631L143.467 44.3458ZM139.679 48.1341L140.061 49.058L139.679 48.1341ZM139.679 1.19984L140.061 0.275956L139.679 1.19984ZM143.467 4.98821L142.543 5.37089L143.467 4.98821ZM10.5 1.66699H133.5V-0.333008H10.5V1.66699ZM143 11.167V38.167H145V11.167H143ZM133.5 47.667H10.5V49.667H133.5V47.667ZM1 38.167V11.167H-1V38.167H1ZM10.5 47.667C8.85552 47.667 7.67225 47.6665 6.73798 47.6027C5.8127 47.5396 5.20494 47.4178 4.7039 47.2103L3.93853 49.058C4.72389 49.3833 5.57473 49.528 6.60184 49.5981C7.61997 49.6675 8.88289 49.667 10.5 49.667V47.667ZM-1 38.167C-1 39.7841 -1.00054 41.047 -0.931075 42.0652C-0.860996 43.0923 -0.716341 43.9431 -0.391036 44.7285L1.45672 43.9631C1.24918 43.4621 1.12742 42.8543 1.06429 41.929C1.00054 40.9947 1 39.8115 1 38.167H-1ZM4.7039 47.2103C3.23373 46.6013 2.06569 45.4333 1.45672 43.9631L-0.391036 44.7285C0.420915 46.6887 1.97831 48.2461 3.93853 49.058L4.7039 47.2103ZM143 38.167C143 39.8115 142.999 40.9947 142.936 41.929C142.873 42.8543 142.751 43.4621 142.543 43.9631L144.391 44.7285C144.716 43.9431 144.861 43.0923 144.931 42.0652C145.001 41.047 145 39.7841 145 38.167H143ZM133.5 49.667C135.117 49.667 136.38 49.6675 137.398 49.5981C138.425 49.528 139.276 49.3833 140.061 49.058L139.296 47.2103C138.795 47.4178 138.187 47.5396 137.262 47.6027C136.328 47.6665 135.144 47.667 133.5 47.667V49.667ZM142.543 43.9631C141.934 45.4333 140.766 46.6013 139.296 47.2103L140.061 49.058C142.022 48.2461 143.579 46.6887 144.391 44.7285L142.543 43.9631ZM133.5 1.66699C135.144 1.66699 136.328 1.66753 137.262 1.73128C138.187 1.79441 138.795 1.91618 139.296 2.12372L140.061 0.275956C139.276 -0.0493492 138.425 -0.194004 137.398 -0.264083C136.38 -0.333549 135.117 -0.333008 133.5 -0.333008V1.66699ZM145 11.167C145 9.54988 145.001 8.28696 144.931 7.26883C144.861 6.24172 144.716 5.39088 144.391 4.60552L142.543 5.37089C142.751 5.87193 142.873 6.47969 142.936 7.40497C142.999 8.33924 143 9.52251 143 11.167H145ZM139.296 2.12372C140.766 2.73268 141.934 3.90072 142.543 5.37089L144.391 4.60552C143.579 2.6453 142.022 1.08791 140.061 0.275956L139.296 2.12372ZM10.5 -0.333008C8.88289 -0.333008 7.61997 -0.333549 6.60184 -0.264083C5.57473 -0.194004 4.72389 -0.0493492 3.93853 0.275956L4.7039 2.12372C5.20494 1.91618 5.8127 1.79441 6.73798 1.73128C7.67225 1.66753 8.85552 1.66699 10.5 1.66699V-0.333008ZM1 11.167C1 9.52251 1.00054 8.33924 1.06429 7.40497C1.12742 6.47969 1.24918 5.87193 1.45672 5.37089L-0.391036 4.60552C-0.716341 5.39088 -0.860996 6.24172 -0.931075 7.26883C-1.00054 8.28696 -1 9.54988 -1 11.167H1ZM3.93853 0.275956C1.97831 1.08791 0.420915 2.6453 -0.391036 4.60552L1.45672 5.37089C2.06569 3.90072 3.23373 2.73268 4.7039 2.12372L3.93853 0.275956Z" fill="#A6A6A6"/>
</svg>
