<svg width="60" height="46" viewBox="0 0 60 46" fill="none" xmlns="http://www.w3.org/2000/svg">
<path d="M54.0001 13.6666C50.1334 13.6666 47.9734 17.5066 48.8534 20.3599L39.3867 29.8533C38.5867 29.6133 37.4134 29.6133 36.6134 29.8533L29.8134 23.0533C30.7201 20.1999 28.5601 16.3333 24.6667 16.3333C20.8001 16.3333 18.6134 20.1733 19.5201 23.0533L7.36008 35.1866C4.50675 34.3066 0.666748 36.4666 0.666748 40.3333C0.666748 43.2666 3.06675 45.6666 6.00008 45.6666C9.86675 45.6666 12.0267 41.8266 11.1467 38.9733L23.2801 26.8133C24.0801 27.0533 25.2534 27.0533 26.0534 26.8133L32.8534 33.6133C31.9467 36.4666 34.1067 40.3333 38.0001 40.3333C41.8667 40.3333 44.0534 36.4933 43.1467 33.6133L52.6401 24.1466C55.4934 25.0266 59.3334 22.8666 59.3334 18.9999C59.3334 16.0666 56.9334 13.6666 54.0001 13.6666Z" fill="#059C69"/>
<path d="M38.0001 16.3333L40.5067 10.8133L46.0001 8.33325L40.5067 5.85325L38.0001 0.333252L35.5467 5.85325L30.0001 8.33325L35.5467 10.8133L38.0001 16.3333Z" fill="#059C69"/>
<path d="M7.33341 21.6666L8.66675 16.3333L14.0001 14.9999L8.66675 13.6666L7.33341 8.33325L6.00008 13.6666L0.666748 14.9999L6.00008 16.3333L7.33341 21.6666Z" fill="#059C69"/>
</svg>
