<svg width="64" height="64" viewBox="0 0 64 64" fill="none" xmlns="http://www.w3.org/2000/svg">
<path d="M23.68 26.5066L25.0934 27.9199C25.8667 28.6933 27.1467 28.6933 27.92 27.9199C28.6934 27.1466 28.6934 25.8666 27.92 25.0933L25.5734 22.7466C24.5334 21.7066 22.8534 21.7066 21.8134 22.7466L19.44 25.0933C18.6667 25.8666 18.6667 27.1466 19.44 27.9199C20.2134 28.6933 21.4934 28.6933 22.2667 27.9199L23.68 26.5066ZM32 46.6666C37.4134 46.6666 42.1334 43.7066 44.6667 39.3333C45.1734 38.4533 44.5334 37.3333 43.4934 37.3333H20.5067C19.4934 37.3333 18.8267 38.4533 19.3334 39.3333C21.8667 43.7066 26.5867 46.6666 32 46.6666ZM36.08 27.9199C36.8534 28.6933 38.1334 28.6933 38.9067 27.9199L40.32 26.5066L41.7334 27.9199C42.5067 28.6933 43.7867 28.6933 44.56 27.9199C45.3334 27.1466 45.3334 25.8666 44.56 25.0933L42.2134 22.7466C41.1734 21.7066 39.4934 21.7066 38.4534 22.7466L36.1067 25.0933C35.3067 25.8666 35.3067 27.1466 36.08 27.9199ZM31.9734 5.33325C17.2534 5.33325 5.33337 17.2533 5.33337 31.9999C5.33337 46.7466 17.2534 58.6666 31.9734 58.6666C46.6934 58.6666 58.6667 46.7466 58.6667 31.9999C58.6667 17.2533 46.72 5.33325 31.9734 5.33325ZM32 53.3333C20.2134 53.3333 10.6667 43.7866 10.6667 31.9999C10.6667 20.2133 20.2134 10.6666 32 10.6666C43.7867 10.6666 53.3334 20.2133 53.3334 31.9999C53.3334 43.7866 43.7867 53.3333 32 53.3333Z" fill="#059C69"/>
</svg>
