<svg width="24" height="25" viewBox="0 0 24 25" fill="none" xmlns="http://www.w3.org/2000/svg">
<path d="M17 2.5H7C4.23858 2.5 2 4.73858 2 7.5V17.5C2 20.2614 4.23858 22.5 7 22.5H17C19.7614 22.5 22 20.2614 22 17.5V7.5C22 4.73858 19.7614 2.5 17 2.5Z" stroke="#404040" stroke-width="2" stroke-linecap="round" stroke-linejoin="round"/>
<path d="M16 11.8703C16.1234 12.7025 15.9812 13.5525 15.5937 14.2993C15.2062 15.0461 14.5931 15.6517 13.8416 16.03C13.0901 16.4082 12.2384 16.5399 11.4077 16.4062C10.5771 16.2726 9.80971 15.8804 9.21479 15.2855C8.61987 14.6905 8.22768 13.9232 8.09402 13.0925C7.96035 12.2619 8.09202 11.4102 8.47028 10.6587C8.84854 9.90716 9.45414 9.29404 10.2009 8.90654C10.9477 8.51904 11.7977 8.37689 12.63 8.5003C13.4789 8.62619 14.2648 9.02176 14.8716 9.62861C15.4785 10.2355 15.8741 11.0214 16 11.8703Z" stroke="#404040" stroke-width="2" stroke-linecap="round" stroke-linejoin="round"/>
<path d="M17.5 7H17.51" stroke="#404040" stroke-width="2" stroke-linecap="round" stroke-linejoin="round"/>
</svg>
