<svg width="64" height="64" viewBox="0 0 64 64" fill="none" xmlns="http://www.w3.org/2000/svg">
<path d="M9.33333 29.3333C6.4 29.3333 4 31.7333 4 34.6666V53.3333C4 56.2666 6.4 58.6666 9.33333 58.6666C12.2667 58.6666 14.6667 56.2666 14.6667 53.3333V34.6666C14.6667 31.7333 12.2667 29.3333 9.33333 29.3333Z" fill="#059C69"/>
<path d="M28 14.1333C28 9.19992 31.8667 5.33325 36.8 5.33325C39.5733 5.33325 42.2667 6.63992 44 8.66659C45.7333 6.63992 48.4267 5.33325 51.2 5.33325C56.1333 5.33325 60 9.19992 60 14.1333C60 19.7333 53.3333 26.1599 45.7867 33.0399C44.7733 33.9733 43.2 33.9733 42.1867 33.0399C34.6667 26.1599 28 19.7333 28 14.1333Z" fill="#059C69"/>
<path d="M54.64 45.3333H36.4267C36.1333 45.3333 35.84 45.2799 35.5467 45.1733L31.6267 43.8133C30.9333 43.5733 30.5867 42.8266 30.8267 42.1333C31.0667 41.4399 31.84 41.0666 32.5333 41.3333L35.52 42.4799C35.8133 42.5866 36.16 42.6666 36.48 42.6666H43.4933C45.2267 42.6666 46.64 41.2533 46.64 39.5199C46.64 38.2133 45.8133 37.0399 44.5867 36.5599L26.1333 29.6799C25.5467 29.4399 24.9067 29.3333 24.2667 29.3333H20V53.3866L36.9867 58.2133C38.08 58.5333 39.2533 58.4799 40.32 58.0799L60 50.6666C60 47.7066 57.6 45.3333 54.64 45.3333Z" fill="#059C69"/>
</svg>
