<svg width="304" height="48" viewBox="0 0 304 48" fill="none" xmlns="http://www.w3.org/2000/svg">
<path d="M56 35.039L64.3 40.059C65.82 40.979 67.68 39.619 67.28 37.899L65.08 28.459L72.42 22.099C73.76 20.939 73.04 18.739 71.28 18.599L61.62 17.779L57.84 8.85904C57.16 7.23904 54.84 7.23904 54.16 8.85904L50.38 17.759L40.72 18.579C38.96 18.719 38.24 20.919 39.58 22.079L46.92 28.439L44.72 37.879C44.32 39.599 46.18 40.959 47.7 40.039L56 35.039Z" fill="#059C69"/>
<path d="M104 35.039L112.3 40.059C113.82 40.979 115.68 39.619 115.28 37.899L113.08 28.459L120.42 22.099C121.76 20.939 121.04 18.739 119.28 18.599L109.62 17.779L105.84 8.85904C105.16 7.23904 102.84 7.23904 102.16 8.85904L98.38 17.759L88.72 18.579C86.96 18.719 86.24 20.919 87.58 22.079L94.92 28.439L92.72 37.879C92.32 39.599 94.18 40.959 95.7 40.039L104 35.039Z" fill="#059C69"/>
<path d="M152 35.039L160.3 40.059C161.82 40.979 163.68 39.619 163.28 37.899L161.08 28.459L168.42 22.099C169.76 20.939 169.04 18.739 167.28 18.599L157.62 17.779L153.84 8.85904C153.16 7.23904 150.84 7.23904 150.16 8.85904L146.38 17.759L136.72 18.579C134.96 18.719 134.24 20.919 135.58 22.079L142.92 28.439L140.72 37.879C140.32 39.599 142.18 40.959 143.7 40.039L152 35.039Z" fill="#059C69"/>
<path d="M200 35.039L208.3 40.059C209.82 40.979 211.68 39.619 211.28 37.899L209.08 28.459L216.42 22.099C217.76 20.939 217.04 18.739 215.28 18.599L205.62 17.779L201.84 8.85904C201.16 7.23904 198.84 7.23904 198.16 8.85904L194.38 17.759L184.72 18.579C182.96 18.719 182.24 20.919 183.58 22.079L190.92 28.439L188.72 37.879C188.32 39.599 190.18 40.959 191.7 40.039L200 35.039Z" fill="#059C69"/>
<path d="M248 35.039L256.3 40.059C257.82 40.979 259.68 39.619 259.28 37.899L257.08 28.459L264.42 22.099C265.76 20.939 265.04 18.739 263.28 18.599L253.62 17.779L249.84 8.85904C249.16 7.23904 246.84 7.23904 246.16 8.85904L242.38 17.759L232.72 18.579C230.96 18.719 230.24 20.919 231.58 22.079L238.92 28.439L236.72 37.879C236.32 39.599 238.18 40.959 239.7 40.039L248 35.039Z" fill="#059C69"/>
</svg>
