<svg width="64" height="64" viewBox="0 0 64 64" fill="none" xmlns="http://www.w3.org/2000/svg">
<path d="M48 42.9866C45.9733 42.9866 44.16 43.7866 42.7733 45.0399L23.76 33.9733C23.8933 33.3599 24 32.7466 24 32.1066C24 31.4666 23.8933 30.8533 23.76 30.2399L42.56 19.2799C44 20.6133 45.8933 21.4399 48 21.4399C52.4267 21.4399 56 17.8666 56 13.4399C56 9.01327 52.4267 5.43994 48 5.43994C43.5733 5.43994 40 9.01327 40 13.4399C40 14.0799 40.1067 14.6933 40.24 15.3066L21.44 26.2666C20 24.9333 18.1067 24.1066 16 24.1066C11.5733 24.1066 8 27.6799 8 32.1066C8 36.5333 11.5733 40.1066 16 40.1066C18.1067 40.1066 20 39.2799 21.44 37.9466L40.4267 49.0399C40.2933 49.5999 40.2133 50.1866 40.2133 50.7733C40.2133 55.0666 43.7067 58.5599 48 58.5599C52.2933 58.5599 55.7867 55.0666 55.7867 50.7733C55.7867 46.4799 52.2933 42.9866 48 42.9866Z" fill="#059C69"/>
</svg>
