<svg width="24" height="25" viewBox="0 0 24 25" fill="none" xmlns="http://www.w3.org/2000/svg">
<path d="M23 3.50029C22.0424 4.17577 20.9821 4.6924 19.86 5.03029C19.2577 4.3378 18.4573 3.84698 17.567 3.62422C16.6767 3.40145 15.7395 3.45749 14.8821 3.78474C14.0247 4.112 13.2884 4.69469 12.773 5.45401C12.2575 6.21332 11.9877 7.11263 12 8.03029V9.03029C10.2426 9.07586 8.50127 8.6861 6.93101 7.89574C5.36074 7.10537 4.01032 5.93893 3 4.50029C3 4.50029 -1 13.5003 8 17.5003C5.94053 18.8983 3.48716 19.5992 1 19.5003C10 24.5003 21 19.5003 21 8.00029C20.9991 7.72174 20.9723 7.44388 20.92 7.17029C21.9406 6.16378 22.6608 4.893 23 3.50029V3.50029Z" stroke="#404040" stroke-width="2" stroke-linecap="round" stroke-linejoin="round"/>
</svg>
