<svg width="64" height="64" viewBox="0 0 64 64" fill="none" xmlns="http://www.w3.org/2000/svg">
<path d="M48 27.9467V16.0001C48 13.0667 45.6 10.6667 42.6667 10.6667H10.6667C7.73337 10.6667 5.33337 13.0667 5.33337 16.0001V48.0001C5.33337 50.9334 7.73337 53.3334 10.6667 53.3334H42.6667C45.6 53.3334 48 50.9334 48 48.0001V36.0534L56.4 44.4001C57.2267 45.2534 58.6667 44.6401 58.6667 43.4667V20.5334C58.6667 19.3601 57.2267 18.7467 56.4 19.6001L48 27.9467ZM26.6667 21.3334C29.6 21.3334 32 23.7334 32 26.6667C32 29.6001 29.6 32.0001 26.6667 32.0001C23.7334 32.0001 21.3334 29.6001 21.3334 26.6667C21.3334 23.7334 23.7334 21.3334 26.6667 21.3334ZM37.3334 42.6667H16V41.1467C16 38.9867 17.28 37.0667 19.2534 36.2134C21.52 35.2267 24.0267 34.6667 26.6667 34.6667C29.3067 34.6667 31.8134 35.2267 34.08 36.2134C36.0534 37.0667 37.3334 38.9867 37.3334 41.1467V42.6667Z" fill="#059C69"/>
</svg>
