<svg width="24" height="20" viewBox="0 0 24 20" fill="none" xmlns="http://www.w3.org/2000/svg">
<path d="M21.2679 5.24734C21.2827 5.4546 21.2827 5.66191 21.2827 5.86918C21.2827 12.1911 16.471 19.4754 7.67652 19.4754C4.96711 19.4754 2.4502 18.6907 0.333008 17.3286C0.717964 17.373 1.08806 17.3878 1.48783 17.3878C3.72342 17.3878 5.78141 16.6328 7.42482 15.3447C5.32244 15.3003 3.56059 13.9234 2.95355 12.0282C3.24969 12.0726 3.54577 12.1023 3.85672 12.1023C4.28606 12.1023 4.71545 12.043 5.11518 11.9394C2.92397 11.4952 1.28052 9.57054 1.28052 7.24608V7.18688C1.91713 7.54221 2.65746 7.76429 3.4421 7.79387C2.15402 6.93514 1.31014 5.46941 1.31014 3.81119C1.31014 2.92288 1.54698 2.10858 1.96156 1.39791C4.31564 4.29978 7.85416 6.19485 11.822 6.40216C11.748 6.04682 11.7035 5.67673 11.7035 5.30658C11.7035 2.67118 13.8355 0.524414 16.4857 0.524414C17.8626 0.524414 19.1063 1.10183 19.9798 2.03457C21.0606 1.8273 22.0969 1.42754 23.0149 0.879748C22.6595 1.99018 21.9045 2.92293 20.9125 3.5151C21.8749 3.41151 22.8077 3.14496 23.6663 2.77486C23.015 3.72237 22.2007 4.56625 21.2679 5.24734Z" fill="url(#paint0_linear)"/>
<defs>
<linearGradient id="paint0_linear" x1="0.333008" y1="0.524414" x2="25.5825" y2="3.56539" gradientUnits="userSpaceOnUse">
<stop stop-color="#36AF85"/>
<stop offset="1" stop-color="#17A5B3"/>
</linearGradient>
</defs>
</svg>
